<?xml version="1.0" standalone="no"?><!DOCTYPE svg PUBLIC "-//W3C//DTD SVG 1.1//EN" "http://www.w3.org/Graphics/SVG/1.1/DTD/svg11.dtd"><svg t="1598001528682" class="icon" viewBox="0 0 1024 1024" version="1.1" xmlns="http://www.w3.org/2000/svg" p-id="3249" width="100" height="100" xmlns:xlink="http://www.w3.org/1999/xlink"><defs><style type="text/css"></style></defs><path d="M433.740255 0c-51.003915 0-97.432511 23.443064-129.851915 60.829957-51.025702 70.329191-13.878468 168.654979 13.965617 224.800681 27.865872 56.145702 153.120681 257.503319 157.717788 262.187575 4.575319 4.684255 9.281362 4.684255 9.281361 0s13.878468-299.683404 4.57532-369.90366A997.986043 997.986043 0 0 0 433.762043 0zM160.027234 135.734468c-9.281362 0-74.272681 70.198468-83.554043 131.159149-9.281362 60.80817 23.15983 107.694298 97.432511 159.155745 78.869787 56.145702 259.834553 154.471489 264.409872 149.89617 4.575319-9.368511-69.566638-140.52766-134.557957-238.853447-64.860596-98.347574-134.427234-201.357617-143.730383-201.357617z m23.15983 599.366809c55.709957 23.443064 143.839319-32.811574 166.999149-46.755405l64.991319-46.886127-315.544511 9.36851c18.67166 32.833362 46.406809 60.960681 83.554043 84.294809z m9.281362-257.481532C136.758468 449.470638 20.915745 383.956426 16.209702 383.956426c-4.597106 0-23.181617 84.273021 13.94383 145.211914 37.147234 60.851745 106.73566 79.588766 139.155064 84.273022 37.147234 4.706043 250.444255 4.706043 250.444255 0-4.575319-4.793191-171.574468-107.803234-227.284425-135.821617z m519.669106-416.789788C679.69634 23.443064 633.267745 0 582.285617 0c-23.15983 56.145702-41.722553 112.40034-51.003915 173.230298-9.281362 70.198468 4.575319 369.90366 4.575319 369.903659 0 4.684255 4.575319 4.684255 9.281362 0 4.575319-4.684255 134.557957-210.726128 157.717787-262.187574 23.15983-51.461447 60.285277-149.89617 9.281362-220.116426z m292.275745 323.126469c-4.575319 0-120.701277 65.536-176.280511 93.663319-55.709957 28.105532-222.709106 131.159149-227.284426 135.821617 0 4.706043 213.405957 4.706043 250.553192 0 32.441191-4.684255 102.00783-23.421277 139.133277-84.273022 32.462979-60.938894 13.878468-145.211915 13.878468-145.211914zM665.730723 688.345872c23.138043 14.074553 111.398128 70.198468 166.977362 46.777192 37.147234-18.758809 64.991319-51.461447 83.445106-88.979064l-315.522723-9.368511 65.100255 51.570383z m273.691234-421.474042c-4.575319-60.938894-74.272681-131.159149-83.554042-131.159149-9.281362 0-88.129362 103.053617-148.436426 201.379404-60.285277 98.325787-134.557957 229.484936-129.851915 238.853447 4.575319 9.368511 185.561872-93.641532 264.43166-149.89617 74.250894-51.461447 102.116766-93.641532 97.410723-159.177532z" fill="#EA020A" p-id="3250"></path><path d="M71.244255 1002.212766v-70.917447h81.222809V1002.212766h26.275404v-160.223319H152.467064v66.886808H71.244255v-66.886808H44.990638V1002.212766H71.244255z m222.621958 3.137362c21.090043 0 37.474043-5.381447 49.130213-16.144341 11.677957-11.002553 17.516936-26.929021 17.516936-47.801191v-99.415149h-26.253617v99.850893c0 13.922043-3.377021 24.009532-9.651745 30.741788-6.53617 6.53617-16.841532 9.891404-30.741787 9.891404-14.161702 0-24.467064-3.377021-30.763575-9.891404-6.492596-6.732255-9.629957-16.819745-9.629957-30.72v-99.872681h-26.275404v99.415149c0 20.87217 5.838979 36.798638 17.734808 48.019064 11.220426 10.545021 27.604426 15.926468 48.934128 15.926468z m127.455319-3.137362l14.597447-40.17566h67.104681L517.577532 1002.212766h28.04017l-61.265702-160.223319h-29.848511L393.259574 1002.212766h28.061958z m73.836936-61.723234h-51.396085l25.36034-70.220255h0.893277l25.142468 70.220255zM637.864851 1002.212766l31.438979-120.505192h0.871489L701.396426 1002.212766h27.844085l46.210723-160.223319h-29.630638l-30.066383 121.856h-0.87149l-31.656851-121.856h-27.146893l-31.635064 121.856h-0.915064l-30.066383-121.856h-29.630638L609.824681 1002.212766h28.061957z m290.859575 0v-22.440851h-93.140426v-48.476596h62.137191v-22.440851h-62.137191v-44.445957h89.32766v-22.440851h-115.581277V1002.212766h119.394043z m67.97617 0v-160.223319h-26.253617V1002.212766h26.253617z" fill="#010101" p-id="3251"></path></svg>